<?xml version="1.0" standalone="no"?>
<!DOCTYPE svg PUBLIC "-//W3C//DTD SVG 20010904//EN"
 "http://www.w3.org/TR/2001/REC-SVG-20010904/DTD/svg10.dtd">
<svg version="1.0" xmlns="http://www.w3.org/2000/svg"
 width="144.000000pt" height="144.000000pt" viewBox="0 0 144.000000 144.000000"
 preserveAspectRatio="xMidYMid meet">
<metadata>
Created by potrace 1.14, written by Peter Selinger 2001-2017
</metadata>
<g transform="translate(0.000000,144.000000) scale(0.100000,-0.100000)"
fill="#000000" stroke="none">
<path d="M565 1349 c-9 -14 0 -22 27 -24 45 -2 71 -22 133 -100 22 -27 43 -52
46 -55 17 -14 43 -88 44 -124 1 -36 5 -43 35 -58 19 -9 43 -17 52 -18 9 0 21
-6 25 -13 10 -16 63 -40 63 -28 0 5 -6 14 -14 20 -13 11 -13 19 -1 59 18 60
21 106 12 163 -9 54 -62 112 -117 127 -38 10 -136 9 -160 -2 -9 -4 -24 2 -37
13 -17 16 -85 51 -99 51 -1 0 -6 -5 -9 -11z"/>
<path d="M463 1171 c2 -94 -7 -108 -85 -135 -29 -10 -63 -29 -75 -41 -12 -12
-42 -32 -67 -44 -25 -12 -58 -37 -74 -55 -15 -18 -36 -35 -45 -39 -30 -11 -50
-82 -51 -177 0 -59 5 -99 28 -199 8 -36 13 -68 10 -73 -3 -4 0 -8 5 -8 6 0 11
4 11 8 0 13 70 49 120 62 25 7 47 16 50 20 3 4 43 33 90 65 48 32 90 69 96 84
7 14 26 41 43 59 17 18 32 39 32 45 1 7 3 32 4 57 2 25 4 59 6 75 2 17 -3 41
-11 55 -68 125 -67 121 -61 208 6 79 0 112 -19 112 -4 0 -8 -36 -7 -79z"/>
<path d="M652 980 c2 -49 6 -90 9 -90 8 0 4 -101 -5 -128 -4 -13 -29 -58 -56
-100 -46 -75 -71 -148 -63 -188 2 -10 6 -30 7 -44 5 -33 50 -133 69 -151 32
-32 102 -88 107 -87 3 2 16 -5 29 -14 13 -9 30 -14 37 -11 8 3 45 -10 82 -29
43 -23 83 -36 112 -37 25 -1 66 -3 91 -4 26 -1 53 -8 61 -15 27 -22 172 -41
230 -29 27 5 79 47 73 58 -4 5 -10 7 -14 4 -14 -8 -71 26 -73 43 0 9 -2 24 -3
32 -1 8 2 25 6 36 5 14 2 27 -8 36 -10 11 -15 39 -16 91 -2 55 -7 80 -19 94
-22 24 -49 88 -41 96 8 9 -17 38 -28 32 -9 -6 -90 70 -88 83 4 24 -4 32 -34
32 -38 0 -74 28 -83 65 -3 14 -11 25 -18 26 -6 0 -20 3 -31 5 -22 6 -78 6
-178 1 -93 -5 -113 12 -119 98 0 6 2 47 6 91 5 69 4 83 -10 88 -32 12 -34 5
-32 -84z"/>
</g>
</svg>
